<?xml version="1.0" encoding="UTF-8" standalone="no"?>
<!DOCTYPE svg PUBLIC "-//W3C//DTD SVG 1.1//EN" "http://www.w3.org/Graphics/SVG/1.1/DTD/svg11.dtd">
<svg width="100%" height="100%" viewBox="0 0 24 24" version="1.1" xmlns="http://www.w3.org/2000/svg" xmlns:xlink="http://www.w3.org/1999/xlink" xml:space="preserve" xmlns:serif="http://www.serif.com/" style="fill-rule:evenodd;clip-rule:evenodd;stroke-linecap:round;stroke-linejoin:round;stroke-miterlimit:1.5;">
    <rect x="0" y="0" width="24" height="24" style="fill:none;"/>
    <g>
        <path d="M12,4.5C7,4.5 2.73,7.61 1,12C2.73,16.39 7,19.5 12,19.5C17,19.5 21.27,16.39 23,12C21.27,7.61 17,4.5 12,4.5ZM12,17C9.24,17 7,14.76 7,12C7,9.24 9.24,7 12,7C14.76,7 17,9.24 17,12C17,14.76 14.76,17 12,17ZM12,9C10.34,9 9,10.34 9,12C9,13.66 10.34,15 12,15C13.66,15 15,13.66 15,12C15,10.34 13.66,9 12,9Z" style="fill-rule:nonzero;"/>
        <g transform="matrix(1,0,0,1,-0.856431,0.557522)">
            <path d="M3.997,2.583L21.716,20.302" style="fill:none;stroke:black;stroke-width:1px;"/>
        </g>
    </g>
</svg>
