<svg xmlns="http://www.w3.org/2000/svg" xmlns:xlink="http://www.w3.org/1999/xlink" width="800" height="1200" viewBox="0 0 800 1200">
  <defs>
    <clipPath id="clip-path">
      <rect id="Rectangle_3653" data-name="Rectangle 3653" width="38" height="38" fill="#17394c"/>
    </clipPath>
    <clipPath id="clip-path-2">
      <rect id="Rectangle_3654" data-name="Rectangle 3654" width="38" height="38"/>
    </clipPath>
    <clipPath id="clip-interface">
      <rect width="800" height="1200"/>
    </clipPath>
  </defs>
  <g id="interface" clip-path="url(#clip-interface)">
    <g id="Group_2693" data-name="Group 2693">
      <g id="Polygon_31" data-name="Polygon 31" transform="translate(13 638)" fill="#fff">
        <path d="M 82.13469696044922 71.5 L 0.865301251411438 71.5 L 41.5 1.001245498657227 L 82.13469696044922 71.5 Z" stroke="none"/>
        <path d="M 41.5 2.002510070800781 L 1.730613708496094 71 L 81.26938629150391 71 L 41.5 2.002510070800781 M 41.5 0 L 83 72 L 0 72 L 41.5 0 Z" stroke="none" fill="#707070"/>
      </g>
      <path id="Subtraction_5" data-name="Subtraction 5" d="M87.049,83H7.953a5,5,0,0,1-4.336-7.489L43.165,6.626a5,5,0,0,1,8.672,0L91.385,75.512A5,5,0,0,1,87.049,83ZM47.933,59.358A4.9,4.9,0,0,0,44.428,60.8a4.607,4.607,0,0,0-1.488,3.41,4.525,4.525,0,0,0,1.488,3.384,5.023,5.023,0,0,0,6.985,0A4.525,4.525,0,0,0,52.9,64.207a4.607,4.607,0,0,0-1.488-3.41A4.867,4.867,0,0,0,47.933,59.358ZM47.907,30.73a4.96,4.96,0,0,0-3.544,1.414,4.569,4.569,0,0,0-1.474,3.409A15.715,15.715,0,0,0,43.3,38.5c.27,1.281.575,2.628.905,4.006.362,1.487.78,3.346,1.241,5.523s.959,4.956,1.475,8.247h1.992c.516-3.257,1.012-6.027,1.474-8.233s.881-4.081,1.242-5.563c.373-1.543.69-2.926.944-4.109a14.2,14.2,0,0,0,.375-2.814,4.533,4.533,0,0,0-1.5-3.409A5.021,5.021,0,0,0,47.907,30.73Z" transform="translate(7.055 630.885)" fill="#fd4646"/>
    </g>
    <g id="Group_2534" data-name="Group 2534" transform="translate(246.999 480)">
      <path id="Path_5403" data-name="Path 5403" d="M617.815,3085.13a12.865,12.865,0,0,1-6.648-1.864,13.329,13.329,0,0,1-4.783-4.945,13.889,13.889,0,0,1,0-13.615,13.324,13.324,0,0,1,4.783-4.945,12.87,12.87,0,0,1,6.648-1.864,13.886,13.886,0,0,1,4.459.73,11.7,11.7,0,0,1,3.891,2.269,1,1,0,0,1,.405.812,1.154,1.154,0,0,1-.162.486,2.353,2.353,0,0,0-.73.729,1.15,1.15,0,0,1-.486.163.939.939,0,0,1-.811-.325,7.5,7.5,0,0,0-2.918-1.7,11.414,11.414,0,0,0-3.651-.567,9.773,9.773,0,0,0-5.351,1.54,11.3,11.3,0,0,0-3.891,15.164,10.392,10.392,0,0,0,3.891,4.053,9.7,9.7,0,0,0,5.351,1.459,10.794,10.794,0,0,0,6.729-2.351,1.307,1.307,0,0,1,.73-.243,1.7,1.7,0,0,1,.888.325,1.344,1.344,0,0,1,.406.973,1.5,1.5,0,0,1-.406.973A12.51,12.51,0,0,1,617.815,3085.13Zm26.592,0a13.944,13.944,0,0,1-6.972-1.782,12.744,12.744,0,0,1-4.864-4.863,14.516,14.516,0,0,1,0-13.943,12.744,12.744,0,0,1,4.864-4.865,14.521,14.521,0,0,1,13.945,0,12.743,12.743,0,0,1,4.864,4.865,14.515,14.515,0,0,1,0,13.942,12.744,12.744,0,0,1-4.864,4.863,13.356,13.356,0,0,1-6.973,1.783Zm0-2.513a11.3,11.3,0,0,0,5.594-1.459,10.755,10.755,0,0,0,3.891-3.972,11.377,11.377,0,0,0,1.459-5.674,11.832,11.832,0,0,0-1.459-5.674,9.39,9.39,0,0,0-3.973-3.972,11.31,11.31,0,0,0-5.594-1.459,11.844,11.844,0,0,0-5.675,1.459,11.645,11.645,0,0,0-3.972,3.972,11.381,11.381,0,0,0-1.459,5.674,11.6,11.6,0,0,0,1.459,5.673,9.388,9.388,0,0,0,3.972,3.972,11.066,11.066,0,0,0,5.756,1.459Zm27.24,2.513a11.834,11.834,0,0,1-5.756-1.381,7.96,7.96,0,0,1-3.568-3.728,1.173,1.173,0,0,1-.162-.568,1.443,1.443,0,0,1,.325-.811,1.42,1.42,0,0,1,.973-.323,1.128,1.128,0,0,1,.73.244,2.186,2.186,0,0,1,.567.648,5.4,5.4,0,0,0,2.595,2.432,9.461,9.461,0,0,0,4.216.973,6.792,6.792,0,0,0,4.459-1.381,4.426,4.426,0,0,0,1.7-3.729,4.922,4.922,0,0,0-1.621-3.65,7.993,7.993,0,0,0-4.783-1.864,11.674,11.674,0,0,1-6.242-2.432,6.314,6.314,0,0,1-2.269-4.864,5.676,5.676,0,0,1,1.135-3.567,7.308,7.308,0,0,1,3.081-2.351,10.384,10.384,0,0,1,4.459-.811,9.456,9.456,0,0,1,4.7,1.215,8.238,8.238,0,0,1,3.157,3.081,1.559,1.559,0,0,1,.244.811,1.265,1.265,0,0,1-.648,1.054,1.535,1.535,0,0,1-.648.162,2.373,2.373,0,0,1-.73-.162,1.9,1.9,0,0,1-.568-.567,6.313,6.313,0,0,0-5.756-3,7.553,7.553,0,0,0-4.377,1.134,3.831,3.831,0,0,0-1.621,3.324c0,2.675,2.107,4.3,6.405,4.864a11.432,11.432,0,0,1,6.323,2.594,6.971,6.971,0,0,1,2.107,5.188,8.119,8.119,0,0,1-1.135,4.134,7.794,7.794,0,0,1-3.157,2.675,10.556,10.556,0,0,1-4.141.656Zm39.644-26.912a1.3,1.3,0,0,1,.888.405,1.342,1.342,0,0,1,.406.973v23.913a1.682,1.682,0,0,1-.406.973,1.3,1.3,0,0,1-.888.4,1.491,1.491,0,0,1-.973-.405,1.341,1.341,0,0,1-.406-.973v-19.292l-9.485,19.373a1.3,1.3,0,0,1-1.135.648,1.247,1.247,0,0,1-1.217-.812l-9.4-18.886v18.968a1.684,1.684,0,0,1-.406.973,1.342,1.342,0,0,1-.973.4,1.5,1.5,0,0,1-.973-.4,1.342,1.342,0,0,1-.405-.973V3059.6a1.494,1.494,0,0,1,.406-.973,1.345,1.345,0,0,1,.973-.405,1.431,1.431,0,0,1,1.216.649l10.864,21.643,10.7-21.644a1.429,1.429,0,0,1,1.216-.645Zm20.349,26.912a13.944,13.944,0,0,1-6.972-1.782,12.743,12.743,0,0,1-4.864-4.863,14.516,14.516,0,0,1,0-13.943,12.743,12.743,0,0,1,4.864-4.865,14.522,14.522,0,0,1,13.945,0,12.739,12.739,0,0,1,4.864,4.864,14.515,14.515,0,0,1,0,13.942,12.74,12.74,0,0,1-4.864,4.863,12.975,12.975,0,0,1-6.971,1.782Zm0-2.513a11.3,11.3,0,0,0,5.594-1.459,11.644,11.644,0,0,0,3.972-3.972,11.374,11.374,0,0,0,1.459-5.674,11.831,11.831,0,0,0-1.459-5.674,9.39,9.39,0,0,0-3.972-3.972,11.3,11.3,0,0,0-5.594-1.459,11.844,11.844,0,0,0-5.675,1.459,11.645,11.645,0,0,0-3.972,3.972,11.381,11.381,0,0,0-1.459,5.674,11.6,11.6,0,0,0,1.459,5.673,9.383,9.383,0,0,0,3.972,3.972,10.979,10.979,0,0,0,5.676,1.462Zm27.24,2.513a11.834,11.834,0,0,1-5.756-1.381,7.959,7.959,0,0,1-3.568-3.728,1.173,1.173,0,0,1-.162-.568,1.443,1.443,0,0,1,.324-.811,1.416,1.416,0,0,1,.973-.323,1.133,1.133,0,0,1,.73.244,2.179,2.179,0,0,1,.568.648,5.4,5.4,0,0,0,2.595,2.432,9.453,9.453,0,0,0,4.216.973,6.793,6.793,0,0,0,4.459-1.381,4.425,4.425,0,0,0,1.7-3.729,4.921,4.921,0,0,0-1.621-3.65,7.994,7.994,0,0,0-4.783-1.864,11.159,11.159,0,0,1-6.242-2.513,6.313,6.313,0,0,1-2.269-4.864,5.677,5.677,0,0,1,1.135-3.567,7.321,7.321,0,0,1,3.081-2.35,10.387,10.387,0,0,1,4.458-.812,9.461,9.461,0,0,1,4.7,1.216,8.246,8.246,0,0,1,3.157,3.081,1.563,1.563,0,0,1,.243.811,1.267,1.267,0,0,1-.648,1.054,1.542,1.542,0,0,1-.648.162,2.4,2.4,0,0,1-.73-.162,1.893,1.893,0,0,1-.567-.567,6.315,6.315,0,0,0-5.756-3,7.554,7.554,0,0,0-4.378,1.135,3.831,3.831,0,0,0-1.621,3.324c0,2.674,2.107,4.3,6.405,4.864a11.416,11.416,0,0,1,6.323,2.594,6.971,6.971,0,0,1,2.107,5.188,8.119,8.119,0,0,1-1.135,4.134,7.794,7.794,0,0,1-3.157,2.675,9.01,9.01,0,0,1-4.138.735Z" transform="translate(-570.836 -3057.879)" fill="#17394c"/>
      <path id="Path_5404" data-name="Path 5404" d="M575.838,3056.666a6.825,6.825,0,0,1,3.342.944,8.575,8.575,0,0,1,2.762,2.324,7.924,7.924,0,0,1,1.671,2.833,5.914,5.914,0,0,1,.291,2.979,6.19,6.19,0,0,1-1.6,3.486c-.145.146-.291.363-.436.509a.789.789,0,0,0-.145.8.726.726,0,0,0,.291.363,5.466,5.466,0,0,1,.8,1.017c.073.145.145.218.218.363a6.566,6.566,0,0,1,.073,6.538,10.727,10.727,0,0,1-2.615,3.124,6.549,6.549,0,0,1-2.467,1.453,6.2,6.2,0,0,1-3.633.29,7.132,7.132,0,0,1-2.325-.944,8.341,8.341,0,0,1-1.235-1.017.661.661,0,0,0-.509-.218.827.827,0,0,0-.581.218l-1.085.872c-.073.073-.218.145-.291.218a6.563,6.563,0,0,1-6.539.218,11.113,11.113,0,0,1-2.906-2.251,8.455,8.455,0,0,1-1.961-3.2,6.227,6.227,0,0,1-.218-3.269,6.154,6.154,0,0,1,1.017-2.466v-.072a6.781,6.781,0,0,1,.944-1.085.681.681,0,0,0,.145-.8,1.273,1.273,0,0,0-.291-.363l-.872-1.086a7.01,7.01,0,0,1-1.085-2.979,6.373,6.373,0,0,1,.654-3.632,9.035,9.035,0,0,1,2.107-2.833,8.859,8.859,0,0,1,2.979-1.962,7.242,7.242,0,0,1,3.052-.436,7.013,7.013,0,0,1,2.979,1.085,7.341,7.341,0,0,1,1.162.944.68.68,0,0,0,.8.146,1.281,1.281,0,0,0,.363-.29l1.085-.872a14.892,14.892,0,0,1,4.069-.944ZM565.666,3067.2a1.2,1.2,0,0,1,.872.363c1.816.653,2.034,4.867,0,5.448a1.342,1.342,0,0,1-1.162.363c-.145-.074-.291-.074-.436-.218a2.094,2.094,0,0,0-1.453-.363,2.011,2.011,0,0,0-1.671,1.6,2.866,2.866,0,0,0,.291,1.525,5.247,5.247,0,0,0,1.235,1.6,4.913,4.913,0,0,0,1.889,1.307,2.655,2.655,0,0,0,1.307.073,2.047,2.047,0,0,0,1.381-1.671,2.189,2.189,0,0,0-.363-1.381.071.071,0,0,0-.021-.052.07.07,0,0,0-.052-.021,1.318,1.318,0,0,1,.218-1.453c.726-2.18,4.941-1.671,5.449,0a1.34,1.34,0,0,1,.363,1.163c-.073.145-.073.29-.218.436a2.322,2.322,0,0,0-.363,1.381,1.794,1.794,0,0,0,.872,1.382,1.957,1.957,0,0,0,1.085.363,2.391,2.391,0,0,0,1.381-.436,5.361,5.361,0,0,0,1.671-1.454,4.917,4.917,0,0,0,1.017-1.67,2.474,2.474,0,0,0,0-1.454,2.007,2.007,0,0,0-.872-1.017,1.685,1.685,0,0,0-1.162-.218,2.436,2.436,0,0,0-1.017.363.067.067,0,0,0-.052.021.071.071,0,0,0-.021.052,1.317,1.317,0,0,1-1.453-.218c-2.179-.508-2.034-4.8,0-5.448a1.341,1.341,0,0,1,1.162-.363,5.6,5.6,0,0,0,1.889.508,2.01,2.01,0,0,0,1.671-1.6,2.867,2.867,0,0,0-.291-1.525,5.255,5.255,0,0,0-1.235-1.6,4.684,4.684,0,0,0-2.034-1.307,1.805,1.805,0,0,0-1.235,0,2.046,2.046,0,0,0-1.381,1.67,2.191,2.191,0,0,0,.363,1.381v.072a1.223,1.223,0,0,1-.218,1.525c-.581,1.67-4.795,1.743-5.449,0a1.34,1.34,0,0,1-.363-1.162c.073-.146.073-.29.218-.437a2.323,2.323,0,0,0,.363-1.381,1.794,1.794,0,0,0-.872-1.381,1.956,1.956,0,0,0-1.085-.363,3.049,3.049,0,0,0-1.6.581,8.182,8.182,0,0,0-1.453,1.309,4.927,4.927,0,0,0-1.017,1.67,1.992,1.992,0,0,0,1.162,2.542.927.927,0,0,0,.436.073,2.087,2.087,0,0,0,1.453-.363.07.07,0,0,0,.052-.021.069.069,0,0,0,.021-.051,1.439,1.439,0,0,1,.725-.145Z" transform="translate(-556.555 -3056.57)" fill="#17394c" fill-rule="evenodd"/>
    </g>
    <rect id="Rectangle_3606" data-name="Rectangle 3606" width="26" height="32" transform="translate(10 750)" fill="none"/>
    <rect id="Rectangle_3607" data-name="Rectangle 3607" width="26" height="32" transform="translate(36 750)" fill="none"/>
    <rect id="Rectangle_3608" data-name="Rectangle 3608" width="26" height="32" transform="translate(62 750)" fill="none"/>
    <rect id="Rectangle_3609" data-name="Rectangle 3609" width="26" height="32" transform="translate(88 750)" fill="none"/>
    <path id="twitter" d="M21.147,52.853c.015.209.015.419.015.628A13.65,13.65,0,0,1,7.418,67.225,13.651,13.651,0,0,1,0,65.057a9.993,9.993,0,0,0,1.167.06,9.674,9.674,0,0,0,6-2.064A4.839,4.839,0,0,1,2.647,59.7a6.092,6.092,0,0,0,.912.075,5.109,5.109,0,0,0,1.271-.164A4.831,4.831,0,0,1,.957,54.872v-.06a4.865,4.865,0,0,0,2.183.613,4.838,4.838,0,0,1-1.5-6.461,13.731,13.731,0,0,0,9.96,5.055,5.453,5.453,0,0,1-.12-1.107,4.835,4.835,0,0,1,8.36-3.305,9.511,9.511,0,0,0,3.066-1.167A4.818,4.818,0,0,1,20.788,51.1a9.684,9.684,0,0,0,2.782-.748A10.384,10.384,0,0,1,21.147,52.853Z" transform="translate(11 707.918)" fill="#17394c"/>
    <path id="facebook" d="M31.114,19.557A11.557,11.557,0,1,0,17.751,30.974V22.9H14.815V19.557h2.936V17.011c0-2.9,1.724-4.5,4.365-4.5a17.786,17.786,0,0,1,2.587.226v2.843H23.246a1.67,1.67,0,0,0-1.883,1.8v2.169h3.205L24.055,22.9H21.363v8.076A11.561,11.561,0,0,0,31.114,19.557Z" transform="translate(29 745.735)" fill="#17394c"/>
    <path id="instagram" d="M11.052,37.244a5.7,5.7,0,1,0,5.7,5.7A5.694,5.694,0,0,0,11.052,37.244Zm0,9.411a3.708,3.708,0,1,1,3.708-3.708,3.715,3.715,0,0,1-3.708,3.708Zm7.267-9.644a1.33,1.33,0,1,1-1.33-1.33A1.327,1.327,0,0,1,18.319,37.011Zm3.777,1.35A6.583,6.583,0,0,0,20.3,33.7a6.626,6.626,0,0,0-4.661-1.8c-1.837-.1-7.341-.1-9.178,0A6.617,6.617,0,0,0,1.8,33.7,6.6,6.6,0,0,0,0,38.356c-.1,1.837-.1,7.341,0,9.178a6.583,6.583,0,0,0,1.8,4.661,6.635,6.635,0,0,0,4.661,1.8c1.837.1,7.341.1,9.178,0a6.583,6.583,0,0,0,4.661-1.8,6.626,6.626,0,0,0,1.8-4.661C22.2,45.7,22.2,40.2,22.1,38.361ZM19.724,49.5a3.754,3.754,0,0,1-2.115,2.115c-1.464.581-4.939.447-6.557.447s-5.1.129-6.557-.447A3.754,3.754,0,0,1,2.381,49.5c-.581-1.464-.447-4.939-.447-6.557s-.129-5.1.447-6.557A3.754,3.754,0,0,1,4.5,34.276c1.464-.581,4.939-.447,6.557-.447s5.1-.129,6.557.447a3.754,3.754,0,0,1,2.115,2.115c.581,1.464.447,4.939.447,6.557S20.3,48.045,19.724,49.5Z" transform="translate(90.075 722.175)" fill="#17394c"/>
    <path id="linkedin" d="M19.607,32H1.5A1.515,1.515,0,0,0,0,33.522v18.07a1.515,1.515,0,0,0,1.5,1.522h18.1a1.519,1.519,0,0,0,1.508-1.522V33.522A1.519,1.519,0,0,0,19.607,32ZM6.382,50.1H3.252V40.022H6.386V50.1ZM4.817,38.646a1.815,1.815,0,1,1,1.815-1.815A1.815,1.815,0,0,1,4.817,38.646ZM18.113,50.1h-3.13V45.2c0-1.169-.024-2.672-1.626-2.672-1.631,0-1.881,1.273-1.881,2.588V50.1H8.347V40.022h3V41.4h.042a3.3,3.3,0,0,1,2.965-1.626c3.167,0,3.756,2.088,3.756,4.8Z" transform="translate(64.283 723)" fill="#17394c"/>
    <g id="Group_2624" data-name="Group 2624" transform="translate(307 9)">
      <path id="Path_5412" data-name="Path 5412" d="M1.414-.147l6.1-6.074" transform="translate(11.586 449.22)" fill="none" stroke="#17394c" stroke-linecap="round" stroke-linejoin="round" stroke-width="2"/>
      <path id="Path_5413" data-name="Path 5413" d="M14.843-20.942a11.1,11.1,0,0,1,10.988,11.2,11.1,11.1,0,0,1-10.988,11.2A11.1,11.1,0,0,1,3.855-9.737a11.1,11.1,0,0,1,10.988-11.2Z" transform="translate(12.241 444.942)" fill="none" stroke="#17394c" stroke-linecap="round" stroke-width="2"/>
    </g>
    <g id="Group_2632" data-name="Group 2632" transform="translate(-545.54 -2574.575)">
      <path id="Path_5403-2" data-name="Path 5403" d="M617.994,3085.5a13.038,13.038,0,0,1-6.738-1.89,13.507,13.507,0,0,1-4.848-5.012,14.077,14.077,0,0,1,0-13.8,13.5,13.5,0,0,1,4.848-5.012,13.039,13.039,0,0,1,6.738-1.89,14.081,14.081,0,0,1,4.519.74,11.859,11.859,0,0,1,3.944,2.3,1.012,1.012,0,0,1,.411.822,1.168,1.168,0,0,1-.164.493,2.385,2.385,0,0,0-.74.739,1.166,1.166,0,0,1-.493.166.952.952,0,0,1-.822-.329,7.611,7.611,0,0,0-2.958-1.725,11.575,11.575,0,0,0-3.7-.575,9.9,9.9,0,0,0-5.423,1.561,11.456,11.456,0,0,0-3.944,15.369,10.535,10.535,0,0,0,3.944,4.108,9.824,9.824,0,0,0,5.423,1.479,10.936,10.936,0,0,0,6.82-2.383,1.327,1.327,0,0,1,.74-.246,1.721,1.721,0,0,1,.9.329,1.361,1.361,0,0,1,.411.986,1.515,1.515,0,0,1-.411.986,12.68,12.68,0,0,1-8.457,2.785Zm26.953,0a14.143,14.143,0,0,1-7.067-1.807,12.917,12.917,0,0,1-4.93-4.929,14.713,14.713,0,0,1,0-14.132,12.917,12.917,0,0,1,4.93-4.93,14.717,14.717,0,0,1,14.134,0,12.916,12.916,0,0,1,4.93,4.93,14.713,14.713,0,0,1,0,14.132,12.918,12.918,0,0,1-4.93,4.929,13.538,13.538,0,0,1-7.067,1.807Zm0-2.547a11.452,11.452,0,0,0,5.67-1.479,10.9,10.9,0,0,0,3.944-4.026,11.532,11.532,0,0,0,1.479-5.751,11.992,11.992,0,0,0-1.479-5.751,9.518,9.518,0,0,0-4.027-4.025,11.46,11.46,0,0,0-5.67-1.479,12,12,0,0,0-5.752,1.479,11.8,11.8,0,0,0-4.026,4.026,11.533,11.533,0,0,0-1.479,5.751,11.756,11.756,0,0,0,1.479,5.751,9.517,9.517,0,0,0,4.026,4.026,11.219,11.219,0,0,0,5.834,1.479Zm27.61,2.547a12,12,0,0,1-5.834-1.4,8.066,8.066,0,0,1-3.616-3.779,1.187,1.187,0,0,1-.164-.575,1.462,1.462,0,0,1,.329-.822,1.436,1.436,0,0,1,.986-.328,1.145,1.145,0,0,1,.74.247,2.217,2.217,0,0,1,.575.657,5.478,5.478,0,0,0,2.63,2.465,9.586,9.586,0,0,0,4.273.986,6.884,6.884,0,0,0,4.52-1.4,4.485,4.485,0,0,0,1.726-3.779,4.988,4.988,0,0,0-1.643-3.7,8.1,8.1,0,0,0-4.848-1.889,11.832,11.832,0,0,1-6.327-2.465,6.4,6.4,0,0,1-2.3-4.93,5.751,5.751,0,0,1,1.15-3.615,7.407,7.407,0,0,1,3.123-2.383,10.524,10.524,0,0,1,4.52-.822,9.583,9.583,0,0,1,4.766,1.232,8.354,8.354,0,0,1,3.2,3.122,1.582,1.582,0,0,1,.247.822,1.282,1.282,0,0,1-.657,1.068,1.546,1.546,0,0,1-.657.164,2.393,2.393,0,0,1-.74-.164,1.921,1.921,0,0,1-.575-.575,6.4,6.4,0,0,0-5.834-3.04,7.658,7.658,0,0,0-4.437,1.15,3.882,3.882,0,0,0-1.643,3.369c0,2.711,2.136,4.354,6.492,4.93a11.582,11.582,0,0,1,6.409,2.629,7.065,7.065,0,0,1,2.136,5.258,8.23,8.23,0,0,1-1.15,4.19,7.9,7.9,0,0,1-3.2,2.711,10.708,10.708,0,0,1-4.2.666Zm40.182-27.277a1.319,1.319,0,0,1,.9.411,1.359,1.359,0,0,1,.411.986v24.237a1.706,1.706,0,0,1-.411.986,1.316,1.316,0,0,1-.9.411,1.515,1.515,0,0,1-.986-.411,1.359,1.359,0,0,1-.411-.986V3064.3l-9.614,19.636a1.312,1.312,0,0,1-1.15.657,1.264,1.264,0,0,1-1.233-.822l-9.532-19.143v19.225a1.7,1.7,0,0,1-.411.986,1.361,1.361,0,0,1-.986.411,1.516,1.516,0,0,1-.986-.411,1.359,1.359,0,0,1-.411-.986v-24.237a1.515,1.515,0,0,1,.411-.986,1.362,1.362,0,0,1,.986-.41,1.449,1.449,0,0,1,1.233.658l11.011,21.937,10.847-21.937a1.45,1.45,0,0,1,1.232-.654Zm20.625,27.277a14.143,14.143,0,0,1-7.067-1.807,12.915,12.915,0,0,1-4.93-4.929,14.713,14.713,0,0,1,0-14.132,12.917,12.917,0,0,1,4.93-4.93,14.718,14.718,0,0,1,14.134,0,12.914,12.914,0,0,1,4.93,4.93,14.713,14.713,0,0,1,0,14.132,12.915,12.915,0,0,1-4.93,4.929,13.156,13.156,0,0,1-7.066,1.807Zm0-2.547a11.452,11.452,0,0,0,5.67-1.479,11.8,11.8,0,0,0,4.026-4.026,11.529,11.529,0,0,0,1.479-5.751,11.988,11.988,0,0,0-1.479-5.751,9.516,9.516,0,0,0-4.026-4.026,11.452,11.452,0,0,0-5.67-1.479,12,12,0,0,0-5.752,1.479,11.8,11.8,0,0,0-4.026,4.026,11.534,11.534,0,0,0-1.479,5.751,11.757,11.757,0,0,0,1.479,5.751,9.513,9.513,0,0,0,4.026,4.026,11.13,11.13,0,0,0,5.753,1.482Zm27.61,2.547a12,12,0,0,1-5.834-1.4,8.066,8.066,0,0,1-3.616-3.779,1.187,1.187,0,0,1-.164-.575,1.461,1.461,0,0,1,.329-.822,1.434,1.434,0,0,1,.986-.327,1.147,1.147,0,0,1,.74.247,2.214,2.214,0,0,1,.575.657,5.477,5.477,0,0,0,2.63,2.465,9.582,9.582,0,0,0,4.273.987,6.883,6.883,0,0,0,4.52-1.4,4.485,4.485,0,0,0,1.726-3.779,4.987,4.987,0,0,0-1.643-3.7,8.1,8.1,0,0,0-4.848-1.889,11.315,11.315,0,0,1-6.327-2.547,6.4,6.4,0,0,1-2.3-4.93,5.753,5.753,0,0,1,1.15-3.615,7.415,7.415,0,0,1,3.123-2.382,10.533,10.533,0,0,1,4.519-.822,9.586,9.586,0,0,1,4.766,1.233,8.361,8.361,0,0,1,3.2,3.122,1.585,1.585,0,0,1,.246.822,1.283,1.283,0,0,1-.657,1.068,1.552,1.552,0,0,1-.657.164,2.423,2.423,0,0,1-.74-.164,1.92,1.92,0,0,1-.575-.574,6.4,6.4,0,0,0-5.834-3.04,7.652,7.652,0,0,0-4.437,1.15,3.882,3.882,0,0,0-1.643,3.369c0,2.711,2.136,4.354,6.492,4.93a11.572,11.572,0,0,1,6.409,2.629,7.066,7.066,0,0,1,2.136,5.258,8.229,8.229,0,0,1-1.15,4.19,7.9,7.9,0,0,1-3.2,2.711,9.137,9.137,0,0,1-4.194.746Z" transform="translate(-13.823 -1.309)" fill="#fff"/>
      <path id="Path_5404-2" data-name="Path 5404" d="M576.1,3056.667a6.916,6.916,0,0,1,3.387.957,8.691,8.691,0,0,1,2.8,2.356,8.024,8.024,0,0,1,1.694,2.872,5.993,5.993,0,0,1,.295,3.019,6.277,6.277,0,0,1-1.62,3.534c-.147.147-.295.368-.442.515a.8.8,0,0,0-.147.81.738.738,0,0,0,.295.368,5.546,5.546,0,0,1,.81,1.031c.074.147.147.221.221.368a6.654,6.654,0,0,1,.074,6.627,10.861,10.861,0,0,1-2.651,3.166,6.634,6.634,0,0,1-2.5,1.473,6.282,6.282,0,0,1-3.682.294,7.218,7.218,0,0,1-2.357-.957,8.444,8.444,0,0,1-1.252-1.031.669.669,0,0,0-.516-.221.837.837,0,0,0-.589.221l-1.1.884c-.074.074-.221.147-.295.221a6.653,6.653,0,0,1-6.628.221,11.265,11.265,0,0,1-2.946-2.282,8.57,8.57,0,0,1-1.988-3.24,6.313,6.313,0,0,1-.221-3.313,6.236,6.236,0,0,1,1.031-2.5v-.073a6.858,6.858,0,0,1,.957-1.1.69.69,0,0,0,.147-.81,1.293,1.293,0,0,0-.3-.368l-.884-1.1a7.108,7.108,0,0,1-1.1-3.019,6.46,6.46,0,0,1,.663-3.682,9.151,9.151,0,0,1,2.136-2.872,8.981,8.981,0,0,1,3.019-1.989,7.35,7.35,0,0,1,3.093-.442,7.11,7.11,0,0,1,3.019,1.1,7.4,7.4,0,0,1,1.178.957.69.69,0,0,0,.81.147,1.289,1.289,0,0,0,.368-.294l1.1-.883a15.086,15.086,0,0,1,4.124-.957Zm-10.31,10.676a1.219,1.219,0,0,1,.884.368c1.841.662,2.062,4.933,0,5.522a1.359,1.359,0,0,1-1.178.368c-.147-.074-.295-.074-.442-.221a2.121,2.121,0,0,0-1.473-.368,2.038,2.038,0,0,0-1.694,1.62,2.907,2.907,0,0,0,.295,1.546,5.322,5.322,0,0,0,1.252,1.62,4.981,4.981,0,0,0,1.915,1.325,2.7,2.7,0,0,0,1.325.074,2.075,2.075,0,0,0,1.4-1.693,2.222,2.222,0,0,0-.368-1.4.072.072,0,0,0-.074-.074,1.336,1.336,0,0,1,.221-1.473c.736-2.209,5.008-1.693,5.523,0a1.358,1.358,0,0,1,.368,1.178c-.074.147-.074.294-.221.442a2.354,2.354,0,0,0-.368,1.4,1.819,1.819,0,0,0,.884,1.4,1.985,1.985,0,0,0,1.1.368,2.423,2.423,0,0,0,1.4-.442,5.435,5.435,0,0,0,1.694-1.473,4.983,4.983,0,0,0,1.031-1.694,2.506,2.506,0,0,0,0-1.473,2.032,2.032,0,0,0-.884-1.031,1.707,1.707,0,0,0-1.178-.221,2.477,2.477,0,0,0-1.031.368.07.07,0,0,0-.053.021.072.072,0,0,0-.021.053,1.334,1.334,0,0,1-1.473-.22c-2.209-.515-2.062-4.86,0-5.522a1.359,1.359,0,0,1,1.178-.368,5.673,5.673,0,0,0,1.915.515,2.037,2.037,0,0,0,1.694-1.62,2.908,2.908,0,0,0-.295-1.546,5.324,5.324,0,0,0-1.252-1.62,4.743,4.743,0,0,0-2.062-1.325,1.828,1.828,0,0,0-1.252,0,2.073,2.073,0,0,0-1.4,1.693,2.222,2.222,0,0,0,.368,1.4v.073a1.239,1.239,0,0,1-.221,1.546c-.589,1.693-4.86,1.767-5.523,0a1.359,1.359,0,0,1-.368-1.178c.074-.147.074-.294.221-.442a2.356,2.356,0,0,0,.368-1.4,1.818,1.818,0,0,0-.884-1.4,1.984,1.984,0,0,0-1.1-.368,3.092,3.092,0,0,0-1.62.589,8.285,8.285,0,0,0-1.473,1.326,4.991,4.991,0,0,0-1.031,1.693,2.019,2.019,0,0,0,1.178,2.577.933.933,0,0,0,.442.074,2.116,2.116,0,0,0,1.473-.368.072.072,0,0,0,.074-.073,1.452,1.452,0,0,1,.735-.146Z" fill="#fff" fill-rule="evenodd"/>
    </g>
    <path id="Path_5464" data-name="Path 5464" d="M1.414,3.719l9.977-9.94" transform="translate(11.586 461.311)" fill="none" stroke="#fff" stroke-linecap="round" stroke-linejoin="round" stroke-width="3"/>
    <path id="Path_5465" data-name="Path 5465" d="M21.837-20.942A18.17,18.17,0,0,1,39.819-2.606,18.17,18.17,0,0,1,21.837,15.731,18.17,18.17,0,0,1,3.855-2.606,18.17,18.17,0,0,1,21.837-20.942Z" transform="translate(14.211 444.942)" fill="none" stroke="#fff" stroke-linecap="round" stroke-width="3"/>
    <g id="Group_2633" data-name="Group 2633" transform="translate(72 7)">
      <path id="Path_5412-2" data-name="Path 5412" d="M1.414-.147l6.1-6.074" transform="translate(11.586 449.22)" fill="none" stroke="#fff" stroke-linecap="round" stroke-linejoin="round" stroke-width="2"/>
      <path id="Path_5413-2" data-name="Path 5413" d="M14.843-20.942a11.1,11.1,0,0,1,10.988,11.2,11.1,11.1,0,0,1-10.988,11.2A11.1,11.1,0,0,1,3.855-9.737a11.1,11.1,0,0,1,10.988-11.2Z" transform="translate(12.241 444.942)" fill="none" stroke="#fff" stroke-linecap="round" stroke-width="2"/>
    </g>
    <g id="Group_2634" data-name="Group 2634" transform="translate(175.881 464.881) rotate(180)">
      <line id="Line_402" data-name="Line 402" x2="38.881" y2="38.881" stroke-width="3" stroke="#fff" stroke-linecap="round" stroke-linejoin="round" stroke-miterlimit="10" fill="none"/>
      <line id="Line_403" data-name="Line 403" y1="38.881" x2="38.881" stroke-width="3" stroke="#fff" stroke-linecap="round" stroke-linejoin="round" stroke-miterlimit="10" fill="none"/>
    </g>
    <g id="Group_2635" data-name="Group 2635" transform="translate(222.525 456.08) rotate(180)">
      <line id="Line_404" data-name="Line 404" x2="24.724" y2="24.724" stroke-width="2" stroke="#fff" stroke-linecap="round" stroke-linejoin="round" stroke-miterlimit="10" fill="none"/>
      <line id="Line_405" data-name="Line 405" y1="24.724" x2="24.724" stroke-width="2" stroke="#fff" stroke-linecap="round" stroke-linejoin="round" stroke-miterlimit="10" fill="none"/>
    </g>
    <g id="Group_2636" data-name="Group 2636" transform="translate(278.525 456.08) rotate(180)">
      <line id="Line_406" data-name="Line 406" x2="24.724" y2="24.724" stroke-width="2" stroke="#17394c" stroke-linecap="round" stroke-linejoin="round" stroke-miterlimit="10" fill="none"/>
      <line id="Line_407" data-name="Line 407" y1="24.724" x2="24.724" stroke-width="2" stroke="#17394c" stroke-linecap="round" stroke-linejoin="round" stroke-miterlimit="10" fill="none"/>
    </g>
    <g id="Group_2637" data-name="Group 2637" transform="translate(39 334.985)">
      <path id="Path_5405" data-name="Path 5405" d="M5.543-14v7.175a1.94,1.94,0,0,0,1.731,2.1h8.87a1.94,1.94,0,0,0,1.731-2.1V-14" transform="translate(-2.673 22.379)" fill="none" stroke="#fff" stroke-linecap="round" stroke-linejoin="round" stroke-width="2"/>
      <path id="Path_5406" data-name="Path 5406" d="M10.027-21.64,1-14.672" transform="translate(-1 24.655)" fill="none" stroke="#fff" stroke-linecap="round" stroke-linejoin="round" stroke-width="2"/>
      <path id="Path_5407" data-name="Path 5407" d="M15.32-21.64l9.027,6.968" transform="translate(-6.275 24.655)" fill="none" stroke="#fff" stroke-linecap="round" stroke-linejoin="round" stroke-width="2"/>
    </g>
    <path id="Path_5466" data-name="Path 5466" d="M14.925,1.351a4.278,4.278,0,0,0-6.193,0l-.609.624-.609-.624a4.3,4.3,0,0,0-6.193,0,4.564,4.564,0,0,0,0,6.344l6.8,6.968,6.8-6.968a4.534,4.534,0,0,0,0-6.344" transform="translate(64.961 337.975)" fill="none" stroke="#fff" stroke-linecap="round" stroke-width="2" fill-rule="evenodd"/>
    <g id="Group_2638" data-name="Group 2638" transform="translate(12.007 335.096)">
      <path id="Path_5414" data-name="Path 5414" d="M10.7-27.9a6.21,6.21,0,0,0-4.742,1.781A6.21,6.21,0,0,0,4.12-21.4c0,4.714,6.58,8.5,6.58,8.5s6.58-3.283,6.58-8.5a6.21,6.21,0,0,0-1.838-4.719A6.21,6.21,0,0,0,10.7-27.9Z" transform="translate(2.186 30.818)" fill="none" stroke="#fff" stroke-width="2"/>
      <path id="Path_5415" data-name="Path 5415" d="M29.123-27.221a7.291,7.291,0,0,0-3.154-.681,6.21,6.21,0,0,0-4.742,1.781A6.21,6.21,0,0,0,19.389-21.4c0,4.714,6.58,8.5,6.58,8.5a16.726,16.726,0,0,0,3.257-2.266c-1.72-1.55-3.528-3.767-3.528-6.239a6.105,6.105,0,0,1,3.425-5.814Z" transform="translate(-19.389 30.818)" fill="none" stroke="#fff" stroke-width="2"/>
    </g>
    <g id="Group_2639" data-name="Group 2639" transform="translate(-76 289)">
      <circle id="Ellipse_849" data-name="Ellipse 849" cx="2" cy="2" r="2" transform="translate(87 2)" fill="#fff"/>
      <circle id="Ellipse_850" data-name="Ellipse 850" cx="2" cy="2" r="2" transform="translate(87 8)" fill="#fff"/>
      <circle id="Ellipse_851" data-name="Ellipse 851" cx="2" cy="2" r="2" transform="translate(87 14)" fill="#fff"/>
      <circle id="Ellipse_852" data-name="Ellipse 852" cx="2" cy="2" r="2" transform="translate(92.727 2)" fill="#fff"/>
      <circle id="Ellipse_853" data-name="Ellipse 853" cx="2" cy="2" r="2" transform="translate(92.727 8)" fill="#fff"/>
      <circle id="Ellipse_854" data-name="Ellipse 854" cx="2" cy="2" r="2" transform="translate(92.727 14)" fill="#fff"/>
      <circle id="Ellipse_855" data-name="Ellipse 855" cx="2" cy="2" r="2" transform="translate(98.727 2)" fill="#fff"/>
      <circle id="Ellipse_856" data-name="Ellipse 856" cx="2" cy="2" r="2" transform="translate(98.727 8)" fill="#fff"/>
      <circle id="Ellipse_857" data-name="Ellipse 857" cx="2" cy="2" r="2" transform="translate(98.727 14)" fill="#fff"/>
    </g>
    <g id="Group_2640" data-name="Group 2640" transform="translate(-81 289)">
      <g id="Rectangle_3575" data-name="Rectangle 3575" transform="translate(125 3)" fill="#fff" stroke="#fff" stroke-width="1">
        <rect width="16" height="2" rx="1" stroke="none"/>
        <rect x="0.5" y="0.5" width="15" height="1" rx="0.5" fill="none"/>
      </g>
      <g id="Rectangle_3576" data-name="Rectangle 3576" transform="translate(125 9)" fill="#fff" stroke="#fff" stroke-width="1">
        <rect width="16" height="2" rx="1" stroke="none"/>
        <rect x="0.5" y="0.5" width="15" height="1" rx="0.5" fill="none"/>
      </g>
      <g id="Rectangle_3577" data-name="Rectangle 3577" transform="translate(125 15)" fill="#fff" stroke="#fff" stroke-width="1">
        <rect width="16" height="2" rx="1" stroke="none"/>
        <rect x="0.5" y="0.5" width="15" height="1" rx="0.5" fill="none"/>
      </g>
      <circle id="Ellipse_858" data-name="Ellipse 858" cx="2" cy="2" r="2" transform="translate(118 2)" fill="#fff"/>
      <circle id="Ellipse_859" data-name="Ellipse 859" cx="2" cy="2" r="2" transform="translate(118 8)" fill="#fff"/>
      <circle id="Ellipse_860" data-name="Ellipse 860" cx="2" cy="2" r="2" transform="translate(118 14)" fill="#fff"/>
    </g>
    <path id="Path_5467" data-name="Path 5467" d="M.913,16.786a.913.913,0,1,1,0-1.825H11.554a.913.913,0,1,1,0,1.825Zm0-7.48a.913.913,0,0,1,0-1.826H19.035a.913.913,0,1,1,0,1.826Zm0-7.48A.913.913,0,1,1,.913,0H19.035a.913.913,0,1,1,0,1.826Z" transform="translate(74.03 291)" fill="#fff"/>
    <rect id="Rectangle_3635" data-name="Rectangle 3635" width="30" height="32" transform="translate(10 234)" fill="none"/>
    <rect id="Rectangle_3636" data-name="Rectangle 3636" width="28" height="32" transform="translate(41 234)" fill="none"/>
    <rect id="Rectangle_3637" data-name="Rectangle 3637" width="21" height="32" transform="translate(70 234)" fill="none"/>
    <rect id="Rectangle_3638" data-name="Rectangle 3638" width="21" height="32" transform="translate(300 234)" fill="none"/>
    <rect id="Rectangle_3639" data-name="Rectangle 3639" width="21" height="32" transform="translate(427 234)" fill="none"/>
    <rect id="Rectangle_3678" data-name="Rectangle 3678" width="21" height="32" transform="translate(427 266)" fill="none"/>
    <rect id="Rectangle_3640" data-name="Rectangle 3640" width="24" height="32" transform="translate(92 234)" fill="none"/>
    <rect id="Rectangle_3641" data-name="Rectangle 3641" width="24" height="32" transform="translate(117 234)" fill="none"/>
    <rect id="Rectangle_3642" data-name="Rectangle 3642" width="24" height="32" transform="translate(142 234)" fill="none"/>
    <rect id="Rectangle_3643" data-name="Rectangle 3643" width="26" height="32" transform="translate(167 234)" fill="none"/>
    <rect id="Rectangle_3644" data-name="Rectangle 3644" width="24" height="32" transform="translate(221 234)" fill="none"/>
    <rect id="Rectangle_3645" data-name="Rectangle 3645" width="26" height="32" transform="translate(246 234)" fill="none"/>
    <rect id="Rectangle_3646" data-name="Rectangle 3646" width="26" height="32" transform="translate(273 234)" fill="none"/>
    <rect id="Rectangle_3647" data-name="Rectangle 3647" width="26" height="32" transform="translate(194 234)" fill="none"/>
    <path id="Path_5510" data-name="Path 5510" d="M0,0,9.971,9.972,19.943,0" transform="translate(441.973 240) rotate(90)" fill="none" stroke="#fff" stroke-linecap="round" stroke-linejoin="round" stroke-width="2"/>
    <path id="Path_5524" data-name="Path 5524" d="M0,0,9.971,9.972,19.943,0" transform="translate(441.973 272) rotate(90)" fill="none" stroke="#17394c" stroke-linecap="round" stroke-linejoin="round" stroke-width="2"/>
    <rect id="Rectangle_3648" data-name="Rectangle 3648" width="28" height="32" transform="translate(41 234)" fill="none"/>
    <rect id="Rectangle_3649" data-name="Rectangle 3649" width="26" height="32" transform="translate(448 234)" fill="none"/>
    <rect id="Rectangle_3650" data-name="Rectangle 3650" width="26" height="32" transform="translate(474 234)" fill="none"/>
    <rect id="Rectangle_3651" data-name="Rectangle 3651" width="26" height="32" transform="translate(500 234)" fill="none"/>
    <rect id="Rectangle_3652" data-name="Rectangle 3652" width="26" height="32" transform="translate(526 234)" fill="none"/>
    <rect id="Rectangle_3672" data-name="Rectangle 3672" width="26" height="32" transform="translate(552 234)" fill="none"/>
    <rect id="Rectangle_3679" data-name="Rectangle 3679" width="26" height="32" transform="translate(575 234)" fill="none"/>
    <rect id="Rectangle_3680" data-name="Rectangle 3680" width="26" height="32" transform="translate(575 264)" fill="none"/>
    <path id="calendar-times" d="M14.5,5.321H.4a.4.4,0,0,1-.4-.4v-1.2a1.6,1.6,0,0,1,1.6-1.6h1.6V.4a.4.4,0,0,1,.4-.4h1.33a.4.4,0,0,1,.4.4V2.128H9.578V.4a.4.4,0,0,1,.4-.4h1.33a.4.4,0,0,1,.4.4V2.128h1.6a1.6,1.6,0,0,1,1.6,1.6v1.2A.4.4,0,0,1,14.5,5.321ZM.4,6.385H14.5a.4.4,0,0,1,.4.4v8.647a1.6,1.6,0,0,1-1.6,1.6H1.6a1.6,1.6,0,0,1-1.6-1.6V6.784A.4.4,0,0,1,.4,6.385Zm8.557,5.321,1.6-1.6a.4.4,0,0,0,0-.565L9.615,8.6a.4.4,0,0,0-.565,0l-1.6,1.6L5.85,8.6a.4.4,0,0,0-.565,0l-.941.941a.4.4,0,0,0,0,.565l1.6,1.6-1.6,1.6a.4.4,0,0,0,0,.565l.941.941a.4.4,0,0,0,.565,0l1.6-1.6,1.6,1.6a.4.4,0,0,0,.565,0l.941-.941a.4.4,0,0,0,0-.565Z" transform="translate(454 241)" fill="#fff"/>
    <g id="Group_2670" data-name="Group 2670" transform="translate(476.042 242.157)" style="isolation: isolate">
      <path id="Path_5457" data-name="Path 5457" d="M72.354-1222.846l-4.346,2.054,0,.335,0,.336H85.415l0-.336,0-.335-4.351-2.055c-2.392-1.13-4.351-2.054-4.354-2.052S74.744-1223.976,72.354-1222.846Z" transform="translate(-65.658 1223.093)" fill="#fff"/>
      <path id="Path_5458" data-name="Path 5458" d="M178.168-890.851c0,.009-.006.259,0,.551l0,.533h14.051v-1.1l-7.022,0C179.57-890.871,178.172-890.867,178.168-890.851Z" transform="translate(-174.143 894.147)" fill="#fff"/>
      <path id="Path_5459" data-name="Path 5459" d="M206.912-797.951c0,.027-.015.393-.024.811s-.023,1.014-.03,1.325-.021.843-.03,1.187-.023.9-.03,1.226-.021.881-.03,1.225-.023.877-.03,1.188-.02.781-.024,1.046l-.011.484h2.048l-.009-.256c-.009-.2-.237-8.19-.237-8.265a4.273,4.273,0,0,0-.792-.02h-.79Z" transform="translate(-202.247 802.692)" fill="#fff"/>
      <path id="Path_5460" data-name="Path 5460" d="M451.207-797.845c0,.087-.015.469-.024.849l-.03,1.271c-.008.318-.021.857-.03,1.2s-.023.9-.03,1.233c-.076,3-.091,3.626-.091,3.722v.111h2.04v-.05c0-.041-.058-2.09-.122-4.288-.009-.3-.023-.773-.03-1.058s-.029-1-.046-1.6-.033-1.186-.04-1.314l-.009-.231h-1.577Z" transform="translate(-442.828 802.692)" fill="#fff"/>
      <path id="Path_5461" data-name="Path 5461" d="M695.207-797.753c-.009.215-.207,8.138-.207,8.251v.043h2.04v-.058c0-.131-.23-8.213-.237-8.342l-.009-.14h-1.577Z" transform="translate(-683.113 802.692)" fill="#fff"/>
      <path id="Path_5462" data-name="Path 5462" d="M939.016-797.951c0,.027-.011.445-.023.926-.024.927-.026,1.026-.1,3.928-.008.335-.021.883-.031,1.218s-.021.884-.03,1.221-.018.746-.024.906l-.009.294h2.043v-.081c0-.16-.23-8.362-.237-8.411L940.6-798h-1.582Z" transform="translate(-923.202 802.692)" fill="#fff"/>
      <path id="Path_5463" data-name="Path 5463" d="M1.857-216.444v.557l-.467,0-.469,0,0,.548,0,.55H0v1.1H19.485v-1.1h-.913l0-.55,0-.548-.467,0-.469,0V-217H1.857Z" transform="translate(1.307 231.502)" fill="#fff"/>
    </g>
    <path id="calendar-times-2" data-name="calendar-times" d="M14.5,5.321H.4a.4.4,0,0,1-.4-.4v-1.2a1.6,1.6,0,0,1,1.6-1.6h1.6V.4a.4.4,0,0,1,.4-.4h1.33a.4.4,0,0,1,.4.4V2.128H9.578V.4a.4.4,0,0,1,.4-.4h1.33a.4.4,0,0,1,.4.4V2.128h1.6a1.6,1.6,0,0,1,1.6,1.6v1.2A.4.4,0,0,1,14.5,5.321ZM.4,6.385H14.5a.4.4,0,0,1,.4.4v8.647a1.6,1.6,0,0,1-1.6,1.6H1.6a1.6,1.6,0,0,1-1.6-1.6V6.784A.4.4,0,0,1,.4,6.385Z" transform="translate(506 241)" fill="#fff"/>
    <path id="user-times" d="M7.1,8.117A4.059,4.059,0,1,0,3.044,4.059,4.058,4.058,0,0,0,7.1,8.117ZM9.944,9.132h-.53a5.52,5.52,0,0,1-4.623,0h-.53A4.263,4.263,0,0,0,0,13.394v1.319a1.522,1.522,0,0,0,1.522,1.522H12.683a1.522,1.522,0,0,0,1.522-1.522V13.394A4.263,4.263,0,0,0,9.944,9.132Z" transform="translate(532 242)" fill="#fff"/>
    <path id="Path_5511" data-name="Path 5511" d="M307.778,421.08h-8.505v-8.5a1,1,0,0,0-2,0v8.5h-8.505a1,1,0,1,0,0,2h8.505v8.505a1,1,0,0,0,2,0V423.08h8.505a1,1,0,0,0,0-2Z" transform="translate(-215.768 -310.58)" fill="#17394c"/>
    <g id="Group_2672" data-name="Group 2672" transform="translate(11 141)" clip-path="url(#clip-path)">
      <g id="Group_2671" data-name="Group 2671" transform="translate(8423 21976)">
        <circle id="Ellipse_861" data-name="Ellipse 861" cx="18.637" cy="18.637" r="18.637" transform="translate(-8422.637 -21975.637)" fill="#242120"/>
        <path id="Path_5512" data-name="Path 5512" d="M1,4.959,5.9,10.04,14.59,1" transform="translate(-8411.404 -21961.801)" fill="none" stroke="#fff" stroke-linecap="round" stroke-linejoin="round" stroke-miterlimit="10" stroke-width="2"/>
      </g>
    </g>
    <g id="Group_2674" data-name="Group 2674" transform="translate(59 141)" clip-path="url(#clip-path-2)">
      <g id="Group_2673" data-name="Group 2673" transform="translate(8423 21976)">
        <circle id="Ellipse_862" data-name="Ellipse 862" cx="18.637" cy="18.637" r="18.637" transform="translate(-8422.637 -21975.637)" fill="#fd4646"/>
        <path id="Path_5513" data-name="Path 5513" d="M1,4.959,5.9,10.04,14.59,1" transform="translate(-8411.404 -21961.801)" fill="none" stroke="#fff" stroke-linecap="round" stroke-linejoin="round" stroke-miterlimit="10" stroke-width="2"/>
      </g>
    </g>
    <g id="Group_2675" data-name="Group 2675" transform="translate(6377 22955)">
      <circle id="Ellipse_863" data-name="Ellipse 863" cx="17.5" cy="17.5" r="17.5" transform="translate(-6270 -22814)" fill="#fff" opacity="0"/>
      <path id="Path_5471" data-name="Path 5471" d="M1,5.37l5.413,5.608L16,1" transform="translate(-6260.5 -22802.5)" fill="none" stroke="#fff" stroke-linecap="round" stroke-linejoin="round" stroke-miterlimit="10" stroke-width="2"/>
    </g>
    <g id="Group_2676" data-name="Group 2676" transform="translate(6368 22955)">
      <circle id="Ellipse_864" data-name="Ellipse 864" cx="17.5" cy="17.5" r="17.5" transform="translate(-6207 -22814)" fill="#fff" opacity="0"/>
      <path id="Path_5472" data-name="Path 5472" d="M1,5.37l5.413,5.608L16,1" transform="translate(-6197.5 -22802.5)" fill="none" stroke="#17394c" stroke-linecap="round" stroke-linejoin="round" stroke-miterlimit="10" stroke-width="2"/>
    </g>
    <g id="Group_2677" data-name="Group 2677" transform="translate(6422 22955)">
      <circle id="Ellipse_865" data-name="Ellipse 865" cx="17.5" cy="17.5" r="17.5" transform="translate(-6207 -22814)" fill="#fff" opacity="0"/>
      <path id="Path_5473" data-name="Path 5473" d="M1,5.37l5.413,5.608L16,1" transform="translate(-6197.5 -22802.5)" fill="none" stroke="#fd4646" stroke-linecap="round" stroke-linejoin="round" stroke-miterlimit="10" stroke-width="2"/>
    </g>
    <g id="Group_2678" data-name="Group 2678" transform="translate(-548.584 -627.296)">
      <line id="Line_408" data-name="Line 408" x2="14" y2="14" transform="translate(574.584 843.296) rotate(180)" fill="none" stroke="#2c8dff" stroke-linecap="round" stroke-linejoin="round" stroke-miterlimit="10" stroke-width="2"/>
      <line id="Line_409" data-name="Line 409" y1="14" x2="14" transform="translate(574.584 843.296) rotate(180)" fill="none" stroke="#2c8dff" stroke-linecap="round" stroke-linejoin="round" stroke-miterlimit="10" stroke-width="2"/>
    </g>
    <g id="Group_2679" data-name="Group 2679" transform="translate(104 222) rotate(180)">
      <line id="Line_410" data-name="Line 410" x2="20" y2="20" stroke-width="2" stroke="#fff" stroke-linecap="round" stroke-linejoin="round" stroke-miterlimit="10" fill="none"/>
      <line id="Line_411" data-name="Line 411" y1="20" x2="20" stroke-width="2" stroke="#fff" stroke-linecap="round" stroke-linejoin="round" stroke-miterlimit="10" fill="none"/>
    </g>
    <path id="Path_5514" data-name="Path 5514" d="M12.623-27.9c-4.694,0-8.5,2.979-8.5,8.23,0,5.971,8.5,10.77,8.5,10.77s8.5-4.159,8.5-10.771C21.123-24.921,17.317-27.9,12.623-27.9Z" transform="translate(67.877 268.9)" fill="none" stroke="#fff" stroke-width="2"/>
    <path id="Path_5515" data-name="Path 5515" d="M12.623-27.9c-4.694,0-8.5,2.979-8.5,8.23,0,5.971,8.5,10.77,8.5,10.77s8.5-4.159,8.5-10.771C21.123-24.921,17.317-27.9,12.623-27.9Z" transform="translate(297.877 268.9)" fill="none" stroke="#fff" stroke-width="2"/>
    <g id="Group_2680" data-name="Group 2680" transform="translate(-92 -1)">
      <path id="Path_5476" data-name="Path 5476" d="M12.192-27.9a9.629,9.629,0,0,0-2.71.4c-2.989.814-5.36,3.577-5.36,7.831,0,3.445,2.686,6.5,5.181,8.658A22.6,22.6,0,0,0,12.192-8.9s8.069-4.159,8.069-10.771C20.262-24.921,16.649-27.9,12.192-27.9Z" transform="translate(368.877 269.9)" fill="none" stroke="#fff" stroke-width="2"/>
      <path id="Path_5477" data-name="Path 5477" d="M12.192-27.9c-4.456,0-8.069,2.979-8.069,8.23,0,5.971,8.069,10.77,8.069,10.77a21.335,21.335,0,0,0,3.123-2.114c2.08-1.646,4.946-4.716,4.946-8.656C20.262-24.921,16.649-27.9,12.192-27.9Z" transform="translate(362.877 269.9)" fill="none" stroke="#fff" stroke-width="2"/>
    </g>
    <g id="Group_2681" data-name="Group 2681" transform="translate(7 -2)">
      <path id="Path_5478" data-name="Path 5478" d="M25,0A25,25,0,1,1,0,25,25,25,0,0,1,25,0Z" transform="translate(4 89)" fill="#fff" opacity="0"/>
      <path id="Path_5479" data-name="Path 5479" d="M307.778,421.08h-8.505v-8.5a1,1,0,0,0-2,0v8.5h-8.505a1,1,0,1,0,0,2h8.505v8.505a1,1,0,0,0,2,0V423.08h8.505a1,1,0,0,0,0-2Z" transform="translate(-269.768 -308.58)" fill="#fff"/>
    </g>
    <g id="Group_2682" data-name="Group 2682" transform="translate(8)">
      <path id="Path_5480" data-name="Path 5480" d="M17.5,0A17.5,17.5,0,1,1,0,17.5,17.5,17.5,0,0,1,17.5,0Z" transform="translate(114 189)" fill="#fff" opacity="0"/>
      <g id="Group_2653" data-name="Group 2653" transform="translate(-472.584 -629.296)">
        <line id="Line_412" data-name="Line 412" x2="14" y2="14" transform="translate(611.584 843.296) rotate(180)" fill="none" stroke="#fff" stroke-linecap="round" stroke-linejoin="round" stroke-miterlimit="10" stroke-width="2"/>
        <line id="Line_413" data-name="Line 413" y1="14" x2="14" transform="translate(611.584 843.296) rotate(180)" fill="none" stroke="#fff" stroke-linecap="round" stroke-linejoin="round" stroke-miterlimit="10" stroke-width="2"/>
      </g>
    </g>
    <g id="Group_2683" data-name="Group 2683" transform="translate(52)">
      <path id="Path_5481" data-name="Path 5481" d="M17.5,0A17.5,17.5,0,1,1,0,17.5,17.5,17.5,0,0,1,17.5,0Z" transform="translate(114 189)" fill="#fff" opacity="0"/>
      <g id="Group_2655" data-name="Group 2655" transform="translate(-472.584 -629.296)">
        <line id="Line_414" data-name="Line 414" x2="14" y2="14" transform="translate(611.584 843.296) rotate(180)" fill="none" stroke="#fc4e4e" stroke-linecap="round" stroke-linejoin="round" stroke-miterlimit="10" stroke-width="2"/>
        <line id="Line_415" data-name="Line 415" y1="14" x2="14" transform="translate(611.584 843.296) rotate(180)" fill="none" stroke="#fc4e4e" stroke-linecap="round" stroke-linejoin="round" stroke-miterlimit="10" stroke-width="2"/>
      </g>
    </g>
    <g id="Group_2684" data-name="Group 2684" transform="translate(-1.771 -1.977)">
      <g id="Group_2659" data-name="Group 2659" transform="translate(-265.854 245.651)">
        <path id="Path_5486" data-name="Path 5486" d="M278.625,6.326s4.334-10,14-10,14,10,14,10-4.841,10-14,10S278.625,6.326,278.625,6.326Z" fill="none"/>
        <path id="Path_5487" data-name="Path 5487" d="M292.625-1.674a12.137,12.137,0,0,0-9.071,4.265,19.128,19.128,0,0,0-2.667,3.694,21.468,21.468,0,0,0,2.833,3.747c2.714,2.849,5.71,4.294,8.905,4.294s6.191-1.445,8.905-4.294a21.472,21.472,0,0,0,2.833-3.747A19.129,19.129,0,0,0,301.7,2.591a12.137,12.137,0,0,0-9.071-4.265m0-2c9.666,0,14,10,14,10s-4.841,10-14,10-14-10-14-10S282.959-3.674,292.625-3.674Z" fill="#fff"/>
      </g>
    </g>
    <g id="Ellipse_863-2" data-name="Ellipse 863" transform="translate(19 244)" fill="none" stroke="#fff" stroke-width="2">
      <circle cx="6" cy="6" r="6" stroke="none"/>
      <circle cx="6" cy="6" r="5" fill="none"/>
    </g>
    <g id="Group_2685" data-name="Group 2685" transform="translate(222.069 239.078)">
      <path id="Path_5488" data-name="Path 5488" d="M10.932,0C22.178,0,21.864,19.131,21.864,19.131H0S-.314,0,10.932,0Z" fill="none"/>
      <path id="Path_5489" data-name="Path 5489" d="M10.932,2A6.139,6.139,0,0,0,6.349,3.911c-1.79,1.817-3.112,4.971-3.82,9.12a38.405,38.405,0,0,0-.466,4.1H19.8a38.4,38.4,0,0,0-.466-4.1c-.709-4.149-2.03-7.3-3.82-9.12A6.139,6.139,0,0,0,10.932,2m0-2C22.178,0,21.864,19.131,21.864,19.131H0S-.314,0,10.932,0Z" fill="#fff"/>
    </g>
    <path id="Path_5516" data-name="Path 5516" d="M-5604.562,7032c3.822,6.619,8.1,0,8.1,0" transform="translate(5833.463 -6773.791)" fill="none" stroke="#fff" stroke-linecap="round" stroke-width="2"/>
    <g id="Rectangle_3655" data-name="Rectangle 3655" transform="translate(247 240)" fill="none" stroke="#fff" stroke-width="2">
      <rect width="24" height="20" rx="5" stroke="none"/>
      <rect x="1" y="1" width="22" height="18" rx="4" fill="none"/>
    </g>
    <path id="Path_5517" data-name="Path 5517" d="M3.5,0,7,6H0Z" transform="translate(262.5 246.5) rotate(90)" fill="none" stroke="#fff" stroke-width="2"/>
    <path id="Path_5518" data-name="Path 5518" d="M9.294,29.29a3.331,3.331,0,0,0,1.974.576,4.794,4.794,0,0,0,1.316-.181.556.556,0,0,0,.4-.53V25.278c0-3.051,3.593-4.089,3.745-4.135a.506.506,0,0,0,.124-.05,1.63,1.63,0,0,0,1.454.889h2.636a1.61,1.61,0,0,0,1.62-1.6V10.966a1.61,1.61,0,0,0-1.62-1.6l-3.524-.022a.561.561,0,0,0-.566.558.553.553,0,0,0,.561.549l3.524.022a.489.489,0,0,1,.492.485v9.425a.489.489,0,0,1-.492.485H18.3a.489.489,0,0,1-.492-.485V11.5a3.124,3.124,0,0,0-3.143-3.1H5.038C2.9,8.4,1.546,9.5,1.307,11.406L.009,19.43A.548.548,0,0,0,0,19.516v.1a3.124,3.124,0,0,0,3.143,3.1H8V26.17a3.621,3.621,0,0,0,1.294,3.12ZM3.147,21.6a2,2,0,0,1-2.015-1.986v-.05l1.293-8C2.6,10.2,3.474,9.511,5.038,9.511h9.625A2,2,0,0,1,16.679,11.5v8.573a.553.553,0,0,0-.258.009c-.189.05-4.569,1.3-4.569,5.2V28.71a2.639,2.639,0,0,1-1.891-.31,2.61,2.61,0,0,1-.828-2.235v-4.01a.561.561,0,0,0-.566-.558H3.147Z" transform="translate(191.06 265.866) rotate(180)" fill="#fff" stroke="#fff" stroke-width="1"/>
    <path id="Path_5519" data-name="Path 5519" d="M9.294.576A3.331,3.331,0,0,1,11.268,0a4.794,4.794,0,0,1,1.316.181.556.556,0,0,1,.4.53V4.588c0,3.051,3.593,4.089,3.745,4.134a.506.506,0,0,1,.124.05A1.63,1.63,0,0,1,18.3,7.884h2.64a1.61,1.61,0,0,1,1.62,1.6V18.9a1.61,1.61,0,0,1-1.62,1.6l-3.524.022a.561.561,0,0,1-.566-.558.553.553,0,0,1,.561-.549l3.524-.022a.489.489,0,0,0,.492-.485V9.479a.489.489,0,0,0-.492-.485H18.3a.489.489,0,0,0-.492.485v8.89a3.124,3.124,0,0,1-3.143,3.1H5.038c-2.135,0-3.492-1.1-3.731-3.006l-1.3-8.024A.548.548,0,0,1,0,10.35v-.1a3.124,3.124,0,0,1,3.143-3.1H8V3.7A3.621,3.621,0,0,1,9.294.576ZM3.147,8.264A2,2,0,0,0,1.132,10.25v.05l1.293,8c.17,1.36,1.049,2.054,2.613,2.054h9.625a2,2,0,0,0,2.015-1.986V9.8a.553.553,0,0,1-.258-.009c-.189-.05-4.569-1.3-4.569-5.2V1.156a2.639,2.639,0,0,0-1.891.313A2.61,2.61,0,0,0,9.133,3.7V7.711a.561.561,0,0,1-.566.558H3.147Z" transform="translate(218.06 264.466) rotate(180)" fill="#fff" stroke="#fff" stroke-width="1"/>
    <g id="Rectangle_3656" data-name="Rectangle 3656" transform="translate(10 234)" fill="none" stroke="#d7d7d7" stroke-width="1" opacity="0">
      <rect width="30" height="32" stroke="none"/>
      <rect x="-0.5" y="-0.5" width="31" height="33" fill="none"/>
    </g>
    <g id="Rectangle_3657" data-name="Rectangle 3657" transform="translate(41 234)" fill="none" stroke="#d7d7d7" stroke-width="1" opacity="0">
      <rect width="28" height="32" stroke="none"/>
      <rect x="-0.5" y="-0.5" width="29" height="33" fill="none"/>
    </g>
    <g id="Rectangle_3658" data-name="Rectangle 3658" transform="translate(70 234)" fill="none" stroke="#d7d7d7" stroke-width="1" opacity="0">
      <rect width="21" height="32" stroke="none"/>
      <rect x="-0.5" y="-0.5" width="22" height="33" fill="none"/>
    </g>
    <g id="Rectangle_3659" data-name="Rectangle 3659" transform="translate(300 234)" fill="none" stroke="#d7d7d7" stroke-width="1" opacity="0">
      <rect width="21" height="32" stroke="none"/>
      <rect x="-0.5" y="-0.5" width="22" height="33" fill="none"/>
    </g>
    <g id="Rectangle_3660" data-name="Rectangle 3660" transform="translate(322 234)" fill="none" stroke="#d7d7d7" stroke-width="1" opacity="0">
      <rect width="26" height="32" stroke="none"/>
      <rect x="-0.5" y="-0.5" width="27" height="33" fill="none"/>
    </g>
    <g id="Rectangle_3661" data-name="Rectangle 3661" transform="translate(349 234)" fill="none" stroke="#d7d7d7" stroke-width="1" opacity="0">
      <rect width="26" height="32" stroke="none"/>
      <rect x="-0.5" y="-0.5" width="27" height="33" fill="none"/>
    </g>
    <g id="Rectangle_3662" data-name="Rectangle 3662" transform="translate(399 234)" fill="none" stroke="#d7d7d7" stroke-width="1" opacity="0">
      <rect width="26" height="32" stroke="none"/>
      <rect x="-0.5" y="-0.5" width="27" height="33" fill="none"/>
    </g>
    <g id="Rectangle_3663" data-name="Rectangle 3663" transform="translate(376 234)" fill="none" stroke="#d7d7d7" stroke-width="1" opacity="0">
      <rect width="22" height="32" stroke="none"/>
      <rect x="-0.5" y="-0.5" width="23" height="33" fill="none"/>
    </g>
    <g id="Rectangle_3664" data-name="Rectangle 3664" transform="translate(92 234)" fill="none" stroke="#d7d7d7" stroke-width="1" opacity="0">
      <rect width="24" height="32" stroke="none"/>
      <rect x="-0.5" y="-0.5" width="25" height="33" fill="none"/>
    </g>
    <g id="Rectangle_3665" data-name="Rectangle 3665" transform="translate(117 234)" fill="none" stroke="#d7d7d7" stroke-width="1" opacity="0">
      <rect width="24" height="32" stroke="none"/>
      <rect x="-0.5" y="-0.5" width="25" height="33" fill="none"/>
    </g>
    <g id="Rectangle_3666" data-name="Rectangle 3666" transform="translate(142 234)" fill="none" stroke="#d7d7d7" stroke-width="1" opacity="0">
      <rect width="24" height="32" stroke="none"/>
      <rect x="-0.5" y="-0.5" width="25" height="33" fill="none"/>
    </g>
    <g id="Rectangle_3667" data-name="Rectangle 3667" transform="translate(167 234)" fill="none" stroke="#d7d7d7" stroke-width="1" opacity="0">
      <rect width="26" height="32" stroke="none"/>
      <rect x="-0.5" y="-0.5" width="27" height="33" fill="none"/>
    </g>
    <g id="Rectangle_3668" data-name="Rectangle 3668" transform="translate(221 234)" fill="none" stroke="#d7d7d7" stroke-width="1" opacity="0">
      <rect width="24" height="32" stroke="none"/>
      <rect x="-0.5" y="-0.5" width="25" height="33" fill="none"/>
    </g>
    <g id="Rectangle_3669" data-name="Rectangle 3669" transform="translate(246 234)" fill="none" stroke="#d7d7d7" stroke-width="1" opacity="0">
      <rect width="26" height="32" stroke="none"/>
      <rect x="-0.5" y="-0.5" width="27" height="33" fill="none"/>
    </g>
    <g id="Rectangle_3670" data-name="Rectangle 3670" transform="translate(273 234)" fill="none" stroke="#d7d7d7" stroke-width="1" opacity="0">
      <rect width="26" height="32" stroke="none"/>
      <rect x="-0.5" y="-0.5" width="27" height="33" fill="none"/>
    </g>
    <path id="Path_5520" data-name="Path 5520" d="M9.388,1.952A7.609,7.609,0,0,0,1.944,9.7a7.609,7.609,0,0,0,7.444,7.75h2.034l.1,2.116.024.532,2.347-2.108.6-.54h3.179A7.609,7.609,0,0,0,25.113,9.7a7.609,7.609,0,0,0-7.444-7.749Z" transform="translate(41.554 239.902)" fill="none" stroke="#fff" stroke-width="2"/>
    <g id="Group_2686" data-name="Group 2686" transform="translate(-16 -1)">
      <path id="Path_5495" data-name="Path 5495" d="M.039,2.468l.754-.782a5.28,5.28,0,0,1,7.66,0,5.767,5.767,0,0,1,0,7.945L.04,18.357" transform="translate(119.961 241.959)" fill="none" stroke="#fff" stroke-linecap="round" stroke-width="2" fill-rule="evenodd"/>
      <path id="Path_5496" data-name="Path 5496" d="M10.039,2.468l-.754-.782a5.28,5.28,0,0,0-7.66,0,5.767,5.767,0,0,0,0,7.945l8.413,8.725" transform="translate(109.961 241.959)" fill="none" stroke="#fff" stroke-linecap="round" stroke-width="2" fill-rule="evenodd"/>
    </g>
    <g id="Group_2687" data-name="Group 2687" transform="translate(9 -1)">
      <path id="Path_5497" data-name="Path 5497" d="M.039,2.468l.754-.782a5.28,5.28,0,0,1,7.66,0,5.767,5.767,0,0,1,0,7.945L.04,18.357" transform="translate(119.961 241.959)" fill="#fff" stroke="#fff" stroke-linecap="round" stroke-width="2" fill-rule="evenodd"/>
      <path id="Path_5498" data-name="Path 5498" d="M10.039,2.468l-.754-.782a5.28,5.28,0,0,0-7.66,0,5.767,5.767,0,0,0,0,7.945l8.413,8.725" transform="translate(109.961 241.959)" fill="#fff" stroke="#fff" stroke-linecap="round" stroke-width="2" fill-rule="evenodd"/>
      <g id="Rectangle_3629" data-name="Rectangle 3629" transform="translate(119 243)" fill="#fff" stroke="#fff" stroke-width="1">
        <rect width="2" height="17" stroke="none"/>
        <rect x="0.5" y="0.5" width="1" height="16" fill="none"/>
      </g>
    </g>
    <g id="Group_2688" data-name="Group 2688" transform="translate(34 -1)">
      <path id="Path_5499" data-name="Path 5499" d="M.039,2.468l.754-.782a5.28,5.28,0,0,1,7.66,0,5.767,5.767,0,0,1,0,7.945L.04,18.357" transform="translate(119.961 241.959)" fill="#fd4646" stroke="#fd4646" stroke-linecap="round" stroke-width="2" fill-rule="evenodd"/>
      <path id="Path_5500" data-name="Path 5500" d="M10.039,2.468l-.754-.782a5.28,5.28,0,0,0-7.66,0,5.767,5.767,0,0,0,0,7.945l8.413,8.725" transform="translate(109.961 241.959)" fill="#fd4646" stroke="#fd4646" stroke-linecap="round" stroke-width="2" fill-rule="evenodd"/>
      <g id="Rectangle_3630" data-name="Rectangle 3630" transform="translate(119 243)" fill="#fd4646" stroke="#fd4646" stroke-width="1">
        <rect width="2" height="17" stroke="none"/>
        <rect x="0.5" y="0.5" width="1" height="16" fill="none"/>
      </g>
    </g>
    <g id="Rectangle_3671" data-name="Rectangle 3671" transform="translate(194 234)" fill="none" stroke="#d7d7d7" stroke-width="1" opacity="0">
      <rect width="26" height="32" stroke="none"/>
      <rect x="-0.5" y="-0.5" width="27" height="33" fill="none"/>
    </g>
    <g id="Ellipse_864-2" data-name="Ellipse 864" transform="translate(306 245)" fill="none" stroke="#fff" stroke-width="2">
      <circle cx="4.5" cy="4.5" r="4.5" stroke="none"/>
      <circle cx="4.5" cy="4.5" r="3.5" fill="none"/>
    </g>
    <g id="Group_2689" data-name="Group 2689" transform="translate(324 239.904)">
      <path id="Path_5501" data-name="Path 5501" d="M5,10.2v9.264a1.98,1.98,0,0,0,1.887,1.973h9.607a1.924,1.924,0,0,0,1.887-1.973V10.2" transform="translate(-0.569 -1.437)" fill="none" stroke="#fff" stroke-linecap="round" stroke-linejoin="round" stroke-miterlimit="10" stroke-width="2"/>
      <path id="Path_5502" data-name="Path 5502" d="M1,7.545C1,5.829,1.686,4.8,3.23,4.8H9.578" transform="translate(0 -0.669)" fill="none" stroke="#fff" stroke-linecap="round" stroke-linejoin="round" stroke-miterlimit="10" stroke-width="2"/>
      <path id="Path_5503" data-name="Path 5503" d="M22.6,7.545c0-1.716-.686-2.745-2.23-2.745H9.3" transform="translate(-1.18 -0.669)" fill="none" stroke="#fff" stroke-linecap="round" stroke-linejoin="round" stroke-miterlimit="10" stroke-width="2"/>
      <path id="Path_5504" data-name="Path 5504" d="M10.1,4.62C10.1,2.02,11.231,1,13.494,1" transform="translate(-2.347 -0.903)" fill="none" stroke="#fff" stroke-linecap="round" stroke-linejoin="round" stroke-miterlimit="10" stroke-width="2"/>
      <path id="Path_5505" data-name="Path 5505" d="M16.694,4.62C16.694,2.02,15.563,1,13.3,1" transform="translate(-1.927 -0.903)" fill="none" stroke="#fff" stroke-linecap="round" stroke-linejoin="round" stroke-miterlimit="10" stroke-width="2"/>
      <line id="Line_416" data-name="Line 416" y2="7.72" transform="translate(8.806 8.763)" fill="none" stroke="#fff" stroke-linecap="round" stroke-linejoin="round" stroke-miterlimit="10" stroke-width="2"/>
      <line id="Line_417" data-name="Line 417" y2="7.72" transform="translate(12.923 8.763)" fill="none" stroke="#fff" stroke-linecap="round" stroke-linejoin="round" stroke-miterlimit="10" stroke-width="2"/>
    </g>
    <g id="Group_2690" data-name="Group 2690" transform="translate(380 243)">
      <g id="Group_2666" data-name="Group 2666" transform="translate(-20.5 -20.6)">
        <path id="Path_5506" data-name="Path 5506" d="M20.5,32.447v3.139h3.139l9.227-9.227L29.727,23.22Zm14.769-8.49a.824.824,0,0,0,0-1.174L33.33,20.846a.824.824,0,0,0-1.174,0l-1.529,1.5,3.112,3.112Z" fill="none"/>
        <path id="Path_5507" data-name="Path 5507" d="M23.639,35.587l9.227-9.227-3.139-3.139L20.5,32.447v3.139h3.139m10.1-10.128,1.529-1.5a.824.824,0,0,0,0-1.174L33.33,20.846a.824.824,0,0,0-1.174,0l-1.529,1.5,3.112,3.112M24.468,37.587H18.5V31.619l.586-.586,9.227-9.227,1.414-1.414.018.018,1.006-.988a2.824,2.824,0,0,1,3.994.009l1.938,1.938a2.833,2.833,0,0,1,0,4l-.006.006-.006.006-.984.967.009.009L34.28,27.774,25.054,37Z" fill="#fff"/>
      </g>
    </g>
    <g id="Group_2691" data-name="Group 2691" transform="translate(-265 -465.924)">
      <g id="Rectangle_3632" data-name="Rectangle 3632" transform="translate(628.042 705.924)" fill="none" stroke="#fff" stroke-width="2">
        <rect width="9.465" height="19.076" rx="3" stroke="none"/>
        <rect x="1" y="1" width="7.465" height="17.076" rx="2" fill="none"/>
      </g>
      <g id="Rectangle_3633" data-name="Rectangle 3633" transform="translate(616 713.077)" fill="none" stroke="#fff" stroke-width="2">
        <rect width="9.465" height="11.923" rx="3" stroke="none"/>
        <rect x="1" y="1" width="7.465" height="9.923" rx="2" fill="none"/>
      </g>
    </g>
    <g id="Group_2692" data-name="Group 2692" transform="translate(401.001 241.001)">
      <path id="Path_5508" data-name="Path 5508" d="M9.488,17.9A8.438,8.438,0,0,1,1,9.335,8.56,8.56,0,0,1,9.335,1,8.494,8.494,0,0,1,17.9,8.646c0,.153.153.765.229.688l2.294-6.117" fill="none" stroke="#fff" stroke-linecap="round" stroke-miterlimit="10" stroke-width="2"/>
      <path id="Path_5509" data-name="Path 5509" d="M21.548,11.15,15,9.481" transform="translate(-3.42 -1.815)" fill="none" stroke="#fff" stroke-linecap="round" stroke-miterlimit="10" stroke-width="2"/>
    </g>
    <path id="Path_5415-2" data-name="Path 5415" d="M0,0,14.026,14.026,28.051,0" transform="translate(57.355 548.645) rotate(90)" fill="none" stroke="#17394c" stroke-linecap="round" stroke-linejoin="round" stroke-width="2"/>
    <path id="Path_5521" data-name="Path 5521" d="M0,0,14.026,14.026,28.051,0" transform="translate(108.355 548.645) rotate(90)" fill="none" stroke="#fff" stroke-linecap="round" stroke-linejoin="round" stroke-width="2"/>
    <path id="map-marker-alt" d="M6.141,17.882C.961,10.374,0,9.6,0,6.844a6.844,6.844,0,0,1,13.688,0c0,2.759-.961,3.53-6.141,11.038a.856.856,0,0,1-1.407,0Zm.7-8.187A2.852,2.852,0,1,0,3.992,6.844,2.852,2.852,0,0,0,6.844,9.7Z" transform="translate(558.157 241.209)" fill="#fff"/>
    <rect id="Rectangle_3673" data-name="Rectangle 3673" width="26" height="32" transform="translate(448 266)" fill="none"/>
    <rect id="Rectangle_3674" data-name="Rectangle 3674" width="26" height="32" transform="translate(474 266)" fill="none"/>
    <rect id="Rectangle_3675" data-name="Rectangle 3675" width="26" height="32" transform="translate(500 266)" fill="none"/>
    <rect id="Rectangle_3676" data-name="Rectangle 3676" width="26" height="32" transform="translate(526 266)" fill="none"/>
    <rect id="Rectangle_3677" data-name="Rectangle 3677" width="26" height="32" transform="translate(552 266)" fill="none"/>
    <path id="calendar-times-3" data-name="calendar-times" d="M14.5,5.321H.4a.4.4,0,0,1-.4-.4v-1.2a1.6,1.6,0,0,1,1.6-1.6h1.6V.4a.4.4,0,0,1,.4-.4h1.33a.4.4,0,0,1,.4.4V2.128H9.578V.4a.4.4,0,0,1,.4-.4h1.33a.4.4,0,0,1,.4.4V2.128h1.6a1.6,1.6,0,0,1,1.6,1.6v1.2A.4.4,0,0,1,14.5,5.321ZM.4,6.385H14.5a.4.4,0,0,1,.4.4v8.647a1.6,1.6,0,0,1-1.6,1.6H1.6a1.6,1.6,0,0,1-1.6-1.6V6.784A.4.4,0,0,1,.4,6.385Zm8.557,5.321,1.6-1.6a.4.4,0,0,0,0-.565L9.615,8.6a.4.4,0,0,0-.565,0l-1.6,1.6L5.85,8.6a.4.4,0,0,0-.565,0l-.941.941a.4.4,0,0,0,0,.565l1.6,1.6-1.6,1.6a.4.4,0,0,0,0,.565l.941.941a.4.4,0,0,0,.565,0l1.6-1.6,1.6,1.6a.4.4,0,0,0,.565,0l.941-.941a.4.4,0,0,0,0-.565Z" transform="translate(454 273)" fill="#17394c"/>
    <g id="Group_2694" data-name="Group 2694" transform="translate(476.042 274.157)" style="isolation: isolate">
      <path id="Path_5457-2" data-name="Path 5457" d="M72.354-1222.846l-4.346,2.054,0,.335,0,.336H85.415l0-.336,0-.335-4.351-2.055c-2.392-1.13-4.351-2.054-4.354-2.052S74.744-1223.976,72.354-1222.846Z" transform="translate(-65.658 1223.093)" fill="#17394c"/>
      <path id="Path_5458-2" data-name="Path 5458" d="M178.168-890.851c0,.009-.006.259,0,.551l0,.533h14.051v-1.1l-7.022,0C179.57-890.871,178.172-890.867,178.168-890.851Z" transform="translate(-174.143 894.147)" fill="#17394c"/>
      <path id="Path_5459-2" data-name="Path 5459" d="M206.912-797.951c0,.027-.015.393-.024.811s-.023,1.014-.03,1.325-.021.843-.03,1.187-.023.9-.03,1.226-.021.881-.03,1.225-.023.877-.03,1.188-.02.781-.024,1.046l-.011.484h2.048l-.009-.256c-.009-.2-.237-8.19-.237-8.265a4.273,4.273,0,0,0-.792-.02h-.79Z" transform="translate(-202.247 802.692)" fill="#17394c"/>
      <path id="Path_5460-2" data-name="Path 5460" d="M451.207-797.845c0,.087-.015.469-.024.849l-.03,1.271c-.008.318-.021.857-.03,1.2s-.023.9-.03,1.233c-.076,3-.091,3.626-.091,3.722v.111h2.04v-.05c0-.041-.058-2.09-.122-4.288-.009-.3-.023-.773-.03-1.058s-.029-1-.046-1.6-.033-1.186-.04-1.314l-.009-.231h-1.577Z" transform="translate(-442.828 802.692)" fill="#17394c"/>
      <path id="Path_5461-2" data-name="Path 5461" d="M695.207-797.753c-.009.215-.207,8.138-.207,8.251v.043h2.04v-.058c0-.131-.23-8.213-.237-8.342l-.009-.14h-1.577Z" transform="translate(-683.113 802.692)" fill="#17394c"/>
      <path id="Path_5462-2" data-name="Path 5462" d="M939.016-797.951c0,.027-.011.445-.023.926-.024.927-.026,1.026-.1,3.928-.008.335-.021.883-.031,1.218s-.021.884-.03,1.221-.018.746-.024.906l-.009.294h2.043v-.081c0-.16-.23-8.362-.237-8.411L940.6-798h-1.582Z" transform="translate(-923.202 802.692)" fill="#17394c"/>
      <path id="Path_5463-2" data-name="Path 5463" d="M1.857-216.444v.557l-.467,0-.469,0,0,.548,0,.55H0v1.1H19.485v-1.1h-.913l0-.55,0-.548-.467,0-.469,0V-217H1.857Z" transform="translate(1.307 231.502)" fill="#17394c"/>
    </g>
    <path id="calendar-times-4" data-name="calendar-times" d="M14.5,5.321H.4a.4.4,0,0,1-.4-.4v-1.2a1.6,1.6,0,0,1,1.6-1.6h1.6V.4a.4.4,0,0,1,.4-.4h1.33a.4.4,0,0,1,.4.4V2.128H9.578V.4a.4.4,0,0,1,.4-.4h1.33a.4.4,0,0,1,.4.4V2.128h1.6a1.6,1.6,0,0,1,1.6,1.6v1.2A.4.4,0,0,1,14.5,5.321ZM.4,6.385H14.5a.4.4,0,0,1,.4.4v8.647a1.6,1.6,0,0,1-1.6,1.6H1.6a1.6,1.6,0,0,1-1.6-1.6V6.784A.4.4,0,0,1,.4,6.385Z" transform="translate(506 273)" fill="#17394c"/>
    <path id="user-times-2" data-name="user-times" d="M7.1,8.117A4.059,4.059,0,1,0,3.044,4.059,4.058,4.058,0,0,0,7.1,8.117ZM9.944,9.132h-.53a5.52,5.52,0,0,1-4.623,0h-.53A4.263,4.263,0,0,0,0,13.394v1.319a1.522,1.522,0,0,0,1.522,1.522H12.683a1.522,1.522,0,0,0,1.522-1.522V13.394A4.263,4.263,0,0,0,9.944,9.132Z" transform="translate(532 274)" fill="#17394c"/>
    <path id="map-marker-alt-2" data-name="map-marker-alt" d="M6.141,17.882C.961,10.374,0,9.6,0,6.844a6.844,6.844,0,0,1,13.688,0c0,2.759-.961,3.53-6.141,11.038a.856.856,0,0,1-1.407,0Zm.7-8.187A2.852,2.852,0,1,0,3.992,6.844,2.852,2.852,0,0,0,6.844,9.7Z" transform="translate(558.157 273.21)" fill="#17394c"/>
    <path id="Path_5522" data-name="Path 5522" d="M768.332,864l6.316,6.316L780.964,864" transform="translate(-600.332 -305)" fill="none" stroke="#17394c" stroke-linecap="round" stroke-linejoin="round" stroke-width="3"/>
    <path id="Path_5523" data-name="Path 5523" d="M768.332,864l6.316,6.316L780.964,864" transform="translate(-560.332 -305)" fill="none" stroke="#fff" stroke-linecap="round" stroke-linejoin="round" stroke-width="3"/>
    <path id="Path_5526" data-name="Path 5526" d="M3.861-7.02,8.514-5.613a8.579,8.579,0,0,1-1.477,3.27,6.408,6.408,0,0,1-2.5,1.98A9.358,9.358,0,0,1,.732.3,11.035,11.035,0,0,1-3.844-.51,7.256,7.256,0,0,1-6.908-3.375,9.716,9.716,0,0,1-8.2-8.625,8.927,8.927,0,0,1-5.93-15.182,8.625,8.625,0,0,1,.486-17.473a8.712,8.712,0,0,1,5.1,1.313,7.71,7.71,0,0,1,2.76,4.031L3.662-11.086a4.015,4.015,0,0,0-.516-1.148,3.054,3.054,0,0,0-1.09-.937A3.131,3.131,0,0,0,.615-13.5,3.116,3.116,0,0,0-2.15-12.047,6.178,6.178,0,0,0-2.877-8.66q0,2.859.867,3.92A2.972,2.972,0,0,0,.428-3.68a2.959,2.959,0,0,0,2.3-.855A5.291,5.291,0,0,0,3.861-7.02Z" transform="translate(579 250) rotate(90)" fill="#fff"/>
    <path id="Path_5525" data-name="Path 5525" d="M3.861-7.02,8.514-5.613a8.579,8.579,0,0,1-1.477,3.27,6.408,6.408,0,0,1-2.5,1.98A9.358,9.358,0,0,1,.732.3,11.035,11.035,0,0,1-3.844-.51,7.256,7.256,0,0,1-6.908-3.375,9.716,9.716,0,0,1-8.2-8.625,8.927,8.927,0,0,1-5.93-15.182,8.625,8.625,0,0,1,.486-17.473a8.712,8.712,0,0,1,5.1,1.313,7.71,7.71,0,0,1,2.76,4.031L3.662-11.086a4.015,4.015,0,0,0-.516-1.148,3.054,3.054,0,0,0-1.09-.937A3.131,3.131,0,0,0,.615-13.5,3.116,3.116,0,0,0-2.15-12.047,6.178,6.178,0,0,0-2.877-8.66q0,2.859.867,3.92A2.972,2.972,0,0,0,.428-3.68a2.959,2.959,0,0,0,2.3-.855A5.291,5.291,0,0,0,3.861-7.02Z" transform="translate(579 280) rotate(90)" fill="#17394c"/>
    <rect id="Rectangle_3681" data-name="Rectangle 3681" width="26" height="32" transform="translate(156 750)" fill="none"/>
    <rect id="Rectangle_3682" data-name="Rectangle 3682" width="26" height="32" transform="translate(182 750)" fill="none"/>
    <rect id="Rectangle_3683" data-name="Rectangle 3683" width="26" height="32" transform="translate(208 750)" fill="none"/>
    <rect id="Rectangle_3684" data-name="Rectangle 3684" width="26" height="32" transform="translate(234 750)" fill="none"/>
    <path id="twitter-2" data-name="twitter" d="M21.147,52.853c.015.209.015.419.015.628A13.65,13.65,0,0,1,7.418,67.225,13.651,13.651,0,0,1,0,65.057a9.993,9.993,0,0,0,1.167.06,9.674,9.674,0,0,0,6-2.064A4.839,4.839,0,0,1,2.647,59.7a6.092,6.092,0,0,0,.912.075,5.109,5.109,0,0,0,1.271-.164A4.831,4.831,0,0,1,.957,54.872v-.06a4.865,4.865,0,0,0,2.183.613,4.838,4.838,0,0,1-1.5-6.461,13.731,13.731,0,0,0,9.96,5.055,5.453,5.453,0,0,1-.12-1.107,4.835,4.835,0,0,1,8.36-3.305,9.511,9.511,0,0,0,3.066-1.167A4.818,4.818,0,0,1,20.788,51.1a9.684,9.684,0,0,0,2.782-.748A10.384,10.384,0,0,1,21.147,52.853Z" transform="translate(157 707.918)" fill="#fff"/>
    <path id="facebook-2" data-name="facebook" d="M31.114,19.557A11.557,11.557,0,1,0,17.751,30.974V22.9H14.815V19.557h2.936V17.011c0-2.9,1.724-4.5,4.365-4.5a17.786,17.786,0,0,1,2.587.226v2.843H23.246a1.67,1.67,0,0,0-1.883,1.8v2.169h3.205L24.055,22.9H21.363v8.076A11.561,11.561,0,0,0,31.114,19.557Z" transform="translate(175 745.735)" fill="#fff"/>
    <path id="instagram-2" data-name="instagram" d="M11.052,37.244a5.7,5.7,0,1,0,5.7,5.7A5.694,5.694,0,0,0,11.052,37.244Zm0,9.411a3.708,3.708,0,1,1,3.708-3.708,3.715,3.715,0,0,1-3.708,3.708Zm7.267-9.644a1.33,1.33,0,1,1-1.33-1.33A1.327,1.327,0,0,1,18.319,37.011Zm3.777,1.35A6.583,6.583,0,0,0,20.3,33.7a6.626,6.626,0,0,0-4.661-1.8c-1.837-.1-7.341-.1-9.178,0A6.617,6.617,0,0,0,1.8,33.7,6.6,6.6,0,0,0,0,38.356c-.1,1.837-.1,7.341,0,9.178a6.583,6.583,0,0,0,1.8,4.661,6.635,6.635,0,0,0,4.661,1.8c1.837.1,7.341.1,9.178,0a6.583,6.583,0,0,0,4.661-1.8,6.626,6.626,0,0,0,1.8-4.661C22.2,45.7,22.2,40.2,22.1,38.361ZM19.724,49.5a3.754,3.754,0,0,1-2.115,2.115c-1.464.581-4.939.447-6.557.447s-5.1.129-6.557-.447A3.754,3.754,0,0,1,2.381,49.5c-.581-1.464-.447-4.939-.447-6.557s-.129-5.1.447-6.557A3.754,3.754,0,0,1,4.5,34.276c1.464-.581,4.939-.447,6.557-.447s5.1-.129,6.557.447a3.754,3.754,0,0,1,2.115,2.115c.581,1.464.447,4.939.447,6.557S20.3,48.045,19.724,49.5Z" transform="translate(236.075 722.175)" fill="#fff"/>
    <path id="linkedin-2" data-name="linkedin" d="M19.607,32H1.5A1.515,1.515,0,0,0,0,33.522v18.07a1.515,1.515,0,0,0,1.5,1.522h18.1a1.519,1.519,0,0,0,1.508-1.522V33.522A1.519,1.519,0,0,0,19.607,32ZM6.382,50.1H3.252V40.022H6.386V50.1ZM4.817,38.646a1.815,1.815,0,1,1,1.815-1.815A1.815,1.815,0,0,1,4.817,38.646ZM18.113,50.1h-3.13V45.2c0-1.169-.024-2.672-1.626-2.672-1.631,0-1.881,1.273-1.881,2.588V50.1H8.347V40.022h3V41.4h.042a3.3,3.3,0,0,1,2.965-1.626c3.167,0,3.756,2.088,3.756,4.8Z" transform="translate(210.283 723)" fill="#fff"/>
    <g id="close-icon" transform="translate(395.869 455) rotate(180)">
      <line id="Line_392" data-name="Line 392" x2="20" y2="20" stroke-width="2" stroke="#17394c" stroke-linecap="round" stroke-linejoin="round" stroke-miterlimit="10" fill="none"/>
      <line id="Line_393" data-name="Line 393" y1="20" x2="20" stroke-width="2" stroke="#17394c" stroke-linecap="round" stroke-linejoin="round" stroke-miterlimit="10" fill="none"/>
    </g>
    <g id="close-icon-2" data-name="close-icon" transform="translate(437.869 455) rotate(180)">
      <line id="Line_392-2" data-name="Line 392" x2="20" y2="20" stroke-width="2" stroke="#fff" stroke-linecap="round" stroke-linejoin="round" stroke-miterlimit="10" fill="none"/>
      <line id="Line_393-2" data-name="Line 393" y1="20" x2="20" stroke-width="2" stroke="#fff" stroke-linecap="round" stroke-linejoin="round" stroke-miterlimit="10" fill="none"/>
    </g>
    <g id="Group_2695" data-name="Group 2695">
      <path id="Path_5527" data-name="Path 5527" d="M18,0A18,18,0,1,1,0,18,18,18,0,0,1,18,0Z" transform="translate(474 427)" fill="#fff"/>
      <g id="close-icon-3" data-name="close-icon" transform="translate(501 454) rotate(180)">
        <line id="Line_392-3" data-name="Line 392" x2="18" y2="18" stroke-width="2" stroke="#17394c" stroke-linecap="round" stroke-linejoin="round" stroke-miterlimit="10" fill="none"/>
        <line id="Line_393-3" data-name="Line 393" y1="18" x2="18" stroke-width="2" stroke="#17394c" stroke-linecap="round" stroke-linejoin="round" stroke-miterlimit="10" fill="none"/>
      </g>
    </g>
    <g id="Group_2696" data-name="Group 2696" transform="translate(46)">
      <path id="Path_5527-2" data-name="Path 5527" d="M18,0A18,18,0,1,1,0,18,18,18,0,0,1,18,0Z" transform="translate(474 427)" fill="#17394c"/>
      <g id="close-icon-4" data-name="close-icon" transform="translate(501 454) rotate(180)">
        <line id="Line_392-4" data-name="Line 392" x2="18" y2="18" stroke-width="2" stroke="#fff" stroke-linecap="round" stroke-linejoin="round" stroke-miterlimit="10" fill="none"/>
        <line id="Line_393-4" data-name="Line 393" y1="18" x2="18" stroke-width="2" stroke="#fff" stroke-linecap="round" stroke-linejoin="round" stroke-miterlimit="10" fill="none"/>
      </g>
    </g>
    <rect id="Rectangle_3685" data-name="Rectangle 3685" width="12" height="2" rx="1" transform="translate(31 981)" fill="#17394c"/>
    <rect id="Rectangle_3686" data-name="Rectangle 3686" width="12" height="2" rx="1" transform="translate(11 981)" fill="#17394c"/>
    <rect id="Rectangle_3687" data-name="Rectangle 3687" width="12" height="2" rx="1" transform="translate(18 976) rotate(90)" fill="#17394c"/>
    <rect id="_span_id_collapseSymbol_" data-name="&lt;span id=&quot;collapseSymbol&quot;&gt;" width="14" height="45" transform="translate(30 959)" fill="none"/>
    <rect id="_span_id_collapseSymbol_2" data-name="&lt;span id=&quot;collapseSymbol&quot;&gt;" width="14" height="45" transform="translate(10 959)" fill="none"/>
  </g>
</svg>
